<svg width="69" height="42" viewBox="0 0 69 42" fill="none" xmlns="http://www.w3.org/2000/svg">
<path d="M6.036 36.992V38H1.032V29.684H2.196V36.992H6.036ZM25.3305 38C25.1945 37.64 25.0665 37.288 24.9465 36.944C24.8265 36.592 24.7025 36.236 24.5745 35.876H20.8065L20.0505 38H18.8385C19.1585 37.12 19.4585 36.308 19.7385 35.564C20.0185 34.812 20.2905 34.1 20.5545 33.428C20.8265 32.756 21.0945 32.116 21.3585 31.508C21.6225 30.892 21.8985 30.284 22.1865 29.684H23.2545C23.5425 30.284 23.8185 30.892 24.0825 31.508C24.3465 32.116 24.6105 32.756 24.8745 33.428C25.1465 34.1 25.4225 34.812 25.7025 35.564C25.9825 36.308 26.2825 37.12 26.6025 38H25.3305ZM24.2385 34.916C23.9825 34.22 23.7265 33.548 23.4705 32.9C23.2225 32.244 22.9625 31.616 22.6905 31.016C22.4105 31.616 22.1425 32.244 21.8865 32.9C21.6385 33.548 21.3905 34.22 21.1425 34.916H24.2385ZM45.6115 38C45.4355 37.704 45.2315 37.372 44.9995 37.004C44.7755 36.636 44.5315 36.256 44.2675 35.864C44.0035 35.464 43.7275 35.06 43.4395 34.652C43.1595 34.244 42.8795 33.852 42.5995 33.476C42.3195 33.092 42.0475 32.732 41.7835 32.396C41.5195 32.06 41.2755 31.764 41.0515 31.508V38H39.9115V29.684H40.8355C41.2115 30.084 41.6115 30.552 42.0355 31.088C42.4675 31.616 42.8915 32.164 43.3075 32.732C43.7315 33.292 44.1275 33.844 44.4955 34.388C44.8715 34.932 45.1875 35.416 45.4435 35.84V29.684H46.5835V38H45.6115ZM67.65 33.836C67.65 34.556 67.538 35.184 67.314 35.72C67.09 36.248 66.774 36.688 66.366 37.04C65.958 37.384 65.47 37.644 64.902 37.82C64.334 37.988 63.71 38.072 63.03 38.072C62.694 38.072 62.322 38.056 61.914 38.024C61.514 38 61.15 37.948 60.822 37.868V29.804C61.15 29.724 61.514 29.672 61.914 29.648C62.322 29.616 62.694 29.6 63.03 29.6C63.71 29.6 64.334 29.688 64.902 29.864C65.47 30.032 65.958 30.292 66.366 30.644C66.774 30.988 67.09 31.428 67.314 31.964C67.538 32.492 67.65 33.116 67.65 33.836ZM63.126 37.052C64.23 37.052 65.054 36.772 65.598 36.212C66.142 35.644 66.414 34.852 66.414 33.836C66.414 32.82 66.142 32.032 65.598 31.472C65.054 30.904 64.23 30.62 63.126 30.62C62.798 30.62 62.542 30.624 62.358 30.632C62.182 30.64 62.058 30.648 61.986 30.656V37.016C62.058 37.024 62.182 37.032 62.358 37.04C62.542 37.048 62.798 37.052 63.126 37.052Z" fill="white"/>
<path d="M8.36 9.54C6.90667 9.54 5.85333 9.94667 5.2 10.76C4.56 11.56 4.24 12.66 4.24 14.06C4.24 14.74 4.32 15.36 4.48 15.92C4.64 16.4667 4.88 16.94 5.2 17.34C5.52 17.74 5.92 18.0533 6.4 18.28C6.88 18.4933 7.44 18.6 8.08 18.6C8.42667 18.6 8.72 18.5933 8.96 18.58C9.21333 18.5667 9.43333 18.54 9.62 18.5V13.68H12.74V20.54C12.3667 20.6867 11.7667 20.84 10.94 21C10.1133 21.1733 9.09333 21.26 7.88 21.26C6.84 21.26 5.89333 21.1 5.04 20.78C4.2 20.46 3.48 19.9933 2.88 19.38C2.28 18.7667 1.81333 18.0133 1.48 17.12C1.16 16.2267 1 15.2067 1 14.06C1 12.9 1.18 11.8733 1.54 10.98C1.9 10.0867 2.39333 9.33333 3.02 8.72C3.64667 8.09333 4.38 7.62 5.22 7.3C6.07333 6.98 6.98 6.82 7.94 6.82C8.59333 6.82 9.18 6.86667 9.7 6.96C10.2333 7.04 10.6867 7.14 11.06 7.26C11.4467 7.36667 11.76 7.48 12 7.6C12.2533 7.72 12.4333 7.81333 12.54 7.88L11.64 10.38C11.2133 10.1533 10.72 9.96 10.16 9.8C9.61333 9.62667 9.01333 9.54 8.36 9.54ZM19.703 6.98C21.783 6.98 23.3763 7.35333 24.483 8.1C25.5896 8.83333 26.143 9.98 26.143 11.54C26.143 12.5133 25.9163 13.3067 25.463 13.92C25.023 14.52 24.383 14.9933 23.543 15.34C23.823 15.6867 24.1163 16.0867 24.423 16.54C24.7296 16.98 25.0296 17.4467 25.323 17.94C25.6296 18.42 25.923 18.9267 26.203 19.46C26.483 19.98 26.743 20.4933 26.983 21H23.483C23.2296 20.5467 22.9696 20.0867 22.703 19.62C22.4496 19.1533 22.183 18.7 21.903 18.26C21.6363 17.82 21.3696 17.4067 21.103 17.02C20.8363 16.62 20.5696 16.26 20.303 15.94H18.763V21H15.643V7.34C16.323 7.20667 17.023 7.11333 17.743 7.06C18.4763 7.00667 19.1296 6.98 19.703 6.98ZM19.883 9.64C19.6563 9.64 19.4496 9.64667 19.263 9.66C19.0896 9.67333 18.923 9.68667 18.763 9.7V13.46H19.643C20.8163 13.46 21.6563 13.3133 22.163 13.02C22.6696 12.7267 22.923 12.2267 22.923 11.52C22.923 10.84 22.663 10.36 22.143 10.08C21.6363 9.78667 20.883 9.64 19.883 9.64ZM28.9828 21V7.14H38.3428V9.76H32.1028V12.48H37.6428V15.04H32.1028V18.38H38.8028V21H28.9828ZM41.1117 21V7.14H50.4717V9.76H44.2317V12.48H49.7717V15.04H44.2317V18.38H50.9317V21H41.1117ZM62.5406 21C61.6473 19.4133 60.6806 17.8467 59.6406 16.3C58.6006 14.7533 57.494 13.2933 56.3206 11.92V21H53.2406V7.14H55.7806C56.2206 7.58 56.7073 8.12 57.2406 8.76C57.774 9.4 58.314 10.0867 58.8606 10.82C59.4206 11.54 59.974 12.2933 60.5206 13.08C61.0673 13.8533 61.5806 14.6 62.0606 15.32V7.14H65.1606V21H62.5406Z" fill="white"/>
</svg>
